<?xml version="1.0" encoding="utf-8"?>
<!-- Generator: Adobe Illustrator 15.0.0, SVG Export Plug-In . SVG Version: 6.00 Build 0)  -->
<!DOCTYPE svg PUBLIC "-//W3C//DTD SVG 1.1//EN" "http://www.w3.org/Graphics/SVG/1.1/DTD/svg11.dtd">
<svg version="1.1" id="Layer_1" xmlns="http://www.w3.org/2000/svg" xmlns:xlink="http://www.w3.org/1999/xlink" x="0px" y="0px"
	 width="35px" height="45px" viewBox="0 0 35 45" enable-background="new 0 0 35 45" xml:space="preserve">
<g>
	<path fill="#418BC8" d="M-1045.894-6.765c0.648,0.775,1.248,1.639,1.248,2.7c0,1.848-1.505,3.35-3.354,3.35
		c-1.849,0-3.352-1.502-3.352-3.35c0-1.063,0.599-1.926,1.248-2.704l0.947-1.138l-2.313-2.776l-1.364,1.64
		c-0.965,1.155-2.07,2.764-2.07,4.978c0,3.808,3.097,6.903,6.904,6.903c3.809,0,6.908-3.096,6.908-6.903
		c0-2.181-1.075-3.775-2.03-4.924l0.001-0.002l-11.817-14.184l-2.313,2.776l-0.002,0.001
		C-1057.253-20.397-1045.895-6.767-1045.894-6.765z"/>
	<path fill="#418BC8" d="M-1041.797-10.175c1.156,1.383,2.482,3.326,2.482,6.11c0,4.786-3.897,8.681-8.686,8.681
		c-4.787,0-8.682-3.895-8.682-8.681c0-2.785,1.328-4.733,2.484-6.12l1.57-1.886l-2.312-2.775l-1.987,2.385
		c-1.42,1.701-3.311,4.422-3.311,8.396c0,6.745,5.488,12.233,12.236,12.233c6.747,0,12.238-5.488,12.238-12.233
		c0-4.43-2.49-7.41-3.306-8.386l-12.402-14.888l-0.003,0.003l-2.313,2.776C-1053.786-24.559-1041.797-10.177-1041.797-10.175z"/>
	<path fill="#418BC8" d="M-1034.971-15.862l-13.033-15.638l-2.311,2.773l12.615,15.142c0.917,1.099,3.713,4.446,3.713,9.521
		c0,7.726-6.285,14.011-14.014,14.011c-7.727,0-14.013-6.285-14.013-14.011c0-5.076,2.803-8.432,3.726-9.537l2.192-2.631
		l-2.313-2.775l-2.609,3.13c-1.125,1.349-4.549,5.449-4.549,11.813c0,9.685,7.881,17.564,17.566,17.564
		c9.688,0,17.567-7.88,17.567-17.564C-1030.433-10.429-1033.85-14.52-1034.971-15.862z"/>
</g>
<g>
	<path fill="#418BC8" d="M19.673,24.735c0.648,0.775,1.248,1.639,1.248,2.7c0,1.848-1.505,3.35-3.354,3.35
		c-1.849,0-3.352-1.502-3.352-3.35c0-1.063,0.599-1.926,1.248-2.704l0.947-1.138l-2.313-2.776l-1.364,1.64
		c-0.965,1.155-2.07,2.764-2.07,4.978c0,3.808,3.097,6.903,6.904,6.903c3.809,0,6.908-3.096,6.908-6.903
		c0-2.181-1.075-3.775-2.03-4.924l0.001-0.002L10.628,8.326l-2.313,2.776l-0.002,0.001C8.313,11.103,19.672,24.733,19.673,24.735z"
		/>
	<path fill="#418BC8" d="M23.77,21.325c1.156,1.383,2.482,3.326,2.482,6.11c0,4.786-3.897,8.681-8.686,8.681
		c-4.787,0-8.682-3.895-8.682-8.681c0-2.785,1.328-4.733,2.484-6.12l1.57-1.886l-2.312-2.775L8.641,19.04
		c-1.42,1.701-3.311,4.422-3.311,8.396c0,6.745,5.488,12.233,12.236,12.233c6.747,0,12.238-5.488,12.238-12.233
		c0-4.43-2.49-7.41-3.306-8.386L14.097,4.161l-0.003,0.003L11.78,6.941C11.78,6.941,23.77,21.323,23.77,21.325z"/>
	<path fill="#418BC8" d="M30.596,15.638L17.563,0l-2.311,2.773l12.615,15.142c0.917,1.099,3.713,4.446,3.713,9.521
		c0,7.726-6.285,14.011-14.014,14.011c-7.727,0-14.013-6.285-14.013-14.011c0-5.076,2.803-8.432,3.726-9.537l2.192-2.631
		l-2.313-2.775l-2.609,3.13C3.424,16.971,0,21.071,0,27.436C0,37.12,7.881,45,17.566,45c9.688,0,17.567-7.88,17.567-17.564
		C35.134,21.071,31.717,16.98,30.596,15.638z"/>
</g>
</svg>
