<?xml version="1.0" encoding="UTF-8"?>
<svg width="178px" height="38px" viewBox="0 0 178 38" version="1.1" xmlns="http://www.w3.org/2000/svg" xmlns:xlink="http://www.w3.org/1999/xlink">
    <!-- Generator: Sketch 46 (44423) - http://www.bohemiancoding.com/sketch -->
    <title>Logotype0</title>
    <desc>Created with Sketch.</desc>
    <defs>
        <polygon id="path-1" points="6.99133953 0.0202617801 0.133944186 0.0202617801 0.133944186 29.8786806 6.99133953 29.8786806 6.99133953 0.0202617801"></polygon>
        <polygon id="path-3" points="19.9203175 0.0729258456 19.9203175 21.887378 0.0255363761 21.887378 0.0255363761 0.0729258456 19.9203175 0.0729258456"></polygon>
        <polygon id="path-5" points="14.935028 33.6880734 0 33.6880734 0 0.0171332139 29.8700559 0.0171332139 29.8700559 33.6880734"></polygon>
    </defs>
    <g id="Page-1" stroke="none" stroke-width="1" fill="none" fill-rule="evenodd">
        <g id="Logotype">
            <path d="M39.9975291,24.5097771 C40.8412749,24.5109876 41.5413111,24.3436355 42.0976377,24.0074181 C42.6538019,23.6713521 43.0532658,23.291254 43.2950552,22.8672751 L43.3007386,19.6288755 L41.3318361,19.6258493 C38.9745117,19.6222177 37.7944693,20.6063571 37.7910592,22.5782674 C37.7900849,23.1523487 37.996637,23.6174847 38.4112026,23.9738266 C38.8256059,24.3301686 39.3544896,24.5088692 39.9975291,24.5097771 L39.9975291,24.5097771 Z M44.2292487,28.6345679 C43.9889208,28.2223914 43.775711,27.616837 43.5894569,26.8177534 C42.3413756,28.2761075 40.598836,29.0033175 38.3623251,28.9999886 C36.3132051,28.9969624 34.5731012,28.4172825 33.1420135,27.2606464 C31.7107635,26.1041615 30.9969247,24.6523139 31.00001,22.904952 C31.0037448,20.7086447 31.8772068,19.0499522 33.6202336,17.9293286 C35.3632603,16.8088562 37.895472,16.2509654 41.2171932,16.2559587 L43.3065844,16.2591363 L43.3083707,15.1867815 C43.3116183,13.3183693 42.4493608,12.38265 40.7215981,12.3800777 C39.1144865,12.3776567 38.3095504,13.1165178 38.3069523,14.5963584 L31.5366881,14.5860691 C31.5400982,12.6291388 32.4369434,11.0411095 34.2272239,9.82243507 C36.0170172,8.60345801 38.2983459,7.99578524 41.0708855,8.000022 C43.8431002,8.00425876 46.0320327,8.63795736 47.6368709,9.90066386 C49.2418715,11.1638243 50.0623964,12.8934825 50.0990952,15.0899412 L50.0835063,24.0568974 C50.1068896,25.9166848 50.412171,27.339783 51,28.326646 L50.9993505,28.6447058 L44.2292487,28.6345679 Z" id="Fill-1" fill="#FFFFFF"></path>
            <path d="M62.3826701,20.6586782 L65.9282192,9.02190611 L73,9.03301343 L64.3209099,33.1247971 L63.9473859,34.0019671 C62.7151841,36.6721984 60.5449761,38.0049229 57.4369204,37.9999863 C56.5750758,37.9985979 55.6673126,37.8702466 54.7147392,37.6153953 L54.7223395,33.0331617 L55.5843424,33.0345501 C56.5114231,33.0359385 57.2201529,32.9065074 57.7102152,32.6464109 C58.2005942,32.3860059 58.5638261,31.9185727 58.799911,31.2442656 L59.3309834,29.8698887 L52,9 L59.052305,9.01110732 L62.3826701,20.6586782 Z" id="Fill-3" fill="#FFFFFF"></path>
            <g id="Group-7" transform="translate(106.000000, 0.000000)">
                <mask id="mask-2" fill="white">
                    <use xlink:href="#path-1"></use>
                </mask>
                <g id="Clip-6"></g>
                <polygon id="Fill-5" fill="#FFFFFF" mask="url(#mask-2)" points="6.94136279 29.8786806 0.133944186 29.868 0.18392093 0.0201989529 6.99133953 0.0308795812"></polygon>
            </g>
            <path d="M123.997529,24.5097771 C124.841275,24.5109876 125.541311,24.3436355 126.097638,24.0074181 C126.653802,23.6713521 127.053266,23.291254 127.295055,22.8672751 L127.300739,19.6288755 L125.331836,19.6258493 C122.974512,19.6222177 121.794469,20.6063571 121.791059,22.5782674 C121.790085,23.1523487 121.996637,23.6174847 122.411203,23.9738266 C122.825606,24.3301686 123.354652,24.5088692 123.997529,24.5097771 L123.997529,24.5097771 Z M128.229249,28.6345679 C127.988921,28.2223914 127.775711,27.616837 127.589457,26.8177534 C126.341376,28.2761075 124.598836,29.0033175 122.362325,28.9999886 C120.313205,28.9969624 118.573101,28.4172825 117.142014,27.2606464 C115.710763,26.1041615 114.996925,24.6523139 115.00001,22.904952 C115.003745,20.7086447 115.877207,19.0499522 117.620234,17.9293286 C119.36326,16.8088562 121.895472,16.2509654 125.217193,16.2559587 L127.306584,16.2591363 L127.308371,15.1867815 C127.311618,13.3183693 126.449361,12.38265 124.721598,12.3800777 C123.114486,12.3776567 122.30955,13.1165178 122.306952,14.5963584 L115.536688,14.5860691 C115.540098,12.6291388 116.436943,11.0411095 118.227061,9.82243507 C120.017017,8.60345801 122.298346,7.99578524 125.070885,8.000022 C127.8431,8.00425876 130.032033,8.63795736 131.636871,9.90066386 C133.242034,11.1638243 134.062396,12.8934825 134.099095,15.0899412 L134.083506,24.0568974 C134.10689,25.9166848 134.412171,27.339783 135,28.326646 L134.99935,28.6447058 L128.229249,28.6345679 Z" id="Fill-8" fill="#FFFFFF"></path>
            <path d="M147.361222,24.133495 C148.342853,24.1348565 149.103848,23.8959799 149.644038,23.4162599 C150.184396,22.9368425 150.447953,22.2663541 150.436049,21.4053997 L156.990427,21.4149306 C156.986571,23.6362261 156.101678,25.4566204 154.336083,26.8762647 C152.570321,28.2963629 150.2979,29.0040671 147.518317,28.9999824 C144.254708,28.9952926 141.68436,28.0682274 139.807274,26.2186354 C137.929852,24.3694972 136.994159,21.8102343 137.000027,18.5408467 L137.00053,18.2788237 C137.004219,16.2327145 137.425541,14.4269947 138.265166,12.8622695 C139.104624,11.2976956 140.313263,10.0951431 141.891249,9.25521711 C143.469068,8.41529115 145.336598,7.996841 147.493839,8.00001795 C150.411404,8.00425389 152.72641,8.73767627 154.438689,10.2001338 C156.150466,11.6624401 157.004342,13.6415308 156.999983,16.136952 L150.445438,16.1274211 C150.447282,15.0793291 150.165283,14.274047 149.599274,13.711575 C149.033096,13.1494055 148.273443,12.8674131 147.31914,12.8660516 C145.507272,12.8633285 144.447681,13.9038563 144.140031,15.9871813 C144.041951,16.6484415 143.99199,17.5590168 143.989978,18.7196638 C143.986289,20.7536704 144.253367,22.1637839 144.79121,22.9506093 C145.329221,23.7375861 146.18578,24.1318308 147.361222,24.133495" id="Fill-10" fill="#FFFFFF"></path>
            <g id="Group-14" transform="translate(158.000000, 8.000000)">
                <mask id="mask-4" fill="white">
                    <use xlink:href="#path-3"></use>
                </mask>
                <g id="Clip-13"></g>
                <path d="M10.2279365,5.12760286 C8.29047619,5.12446 7.13619048,6.39307429 6.76555556,8.93266 L13.4425397,8.94334571 L13.4433333,8.43797429 C13.4711111,7.38810286 13.2039683,6.57441714 12.6420635,5.99676 C12.0798413,5.41926 11.2753968,5.12933143 10.2279365,5.12760286 M10.9468254,21.88736 C7.68698413,21.8821743 5.05047619,20.9155886 3.03746032,18.98776 C1.02428571,17.0597743 0.0204761905,14.5535029 0.0255555556,11.4687886 L0.0265079365,10.9242886 C0.03,8.77316 0.435714286,6.87487429 1.24349206,5.23006 C2.05142857,3.58556 3.2284127,2.31396 4.7747619,1.41526 C6.32095238,0.517188571 8.15460317,0.0694885714 10.2753968,0.0729457143 C13.2604762,0.07766 15.6155556,0.998674286 17.3406349,2.83536 C19.0657143,4.67220286 19.9257143,7.23017429 19.9203175,10.5091171 L19.9161905,13.0557743 L6.75888889,13.0347171 C6.99253968,14.2147029 7.50809524,15.1423171 8.30555556,15.8174029 C9.10301587,16.4928029 10.1368254,16.8312886 11.4068254,16.8333314 C13.5012698,16.8366314 15.1390476,16.1136171 16.3196825,14.6638171 L19.3384127,18.2070743 C18.511746,19.3333171 17.341746,20.2290314 15.8285714,20.89406 C14.3152381,21.5590886 12.6877778,21.8901886 10.9468254,21.88736" id="Fill-12" fill="#FFFFFF" mask="url(#mask-4)"></path>
            </g>
            <g id="Group-17" transform="translate(0.000000, 4.000000)">
                <mask id="mask-6" fill="white">
                    <use xlink:href="#path-5"></use>
                </mask>
                <g id="Clip-16"></g>
                <path d="M14.9358128,23.1122018 C13.7069358,23.1106422 12.5374171,22.8642202 11.475385,22.4212844 C10.4245829,21.9845872 9.4796631,21.356055 8.68554545,20.5793578 L17.1513209,17.3743119 L17.6727112,17.1762385 L17.8138877,16.8253211 L21.202123,8.44853211 C22.8031925,10.0066055 23.7914278,12.1588991 23.7882193,14.5342202 C23.7801979,19.2786239 19.8160267,23.12 14.9358128,23.1122018 L14.9358128,23.1122018 Z M16.4470428,16.9251376 L9.94650802,19.3862385 L12.7010535,13.2693578 L16.4470428,16.9251376 Z M6.11228342,14.5061468 C6.12030481,9.76174312 10.0844759,5.92192661 14.9646898,5.92972477 C17.3935668,5.93284404 19.5914278,6.88889908 21.1860802,8.43293578 L13.0170963,11.8797248 L12.4780588,12.1074312 L12.4780588,12.1089908 L12.2261872,12.6642202 L8.66950267,20.5622018 C7.08608021,19.0072477 6.10907487,16.8658716 6.11228342,14.5061468 L6.11228342,14.5061468 Z M14.9743155,0.0171559633 C6.73474332,0.00311926606 0.0449037433,6.48651376 0.0304652406,14.496789 L0.0304652406,14.5201835 L-1.60427807e-05,33.6880734 L7.0138877,26.8022936 C9.30479679,28.2059633 12.017631,29.0200917 14.9261872,29.0247706 C23.1657594,29.0372477 29.8555989,22.5538532 29.8700374,14.543578 C29.8828717,6.53330275 23.2138877,0.0296330275 14.9743155,0.0171559633 L14.9743155,0.0171559633 Z" id="Fill-15" fill="#3F9CEF" mask="url(#mask-6)"></path>
            </g>
            <path d="M88.0007963,27.3207724 C86.766574,27.3191975 85.5919681,27.0703673 84.5253165,26.6231028 C83.4699436,26.1821378 82.5209136,25.5474631 81.7233417,24.7631754 L90.2259413,21.5268072 L90.7495996,21.3267981 L90.8913902,20.9724512 L94.2943635,12.5137974 C95.9023973,14.0870975 96.8949312,16.2604251 96.8917087,18.6589598 C96.8836524,23.4497296 92.9022381,27.3286468 88.0007963,27.3207724 L88.0007963,27.3207724 Z M89.5185998,21.0732432 L82.9897892,23.558396 L85.7563163,17.3817361 L89.5185998,21.0732432 Z M79.1388866,18.630612 C79.1469429,13.8398422 83.1283572,9.96249984 88.029799,9.97037421 C90.469241,9.97352396 92.6766622,10.9389224 94.278251,12.4980486 L86.0737338,15.9785225 L85.5323517,16.2084542 L85.5323517,16.2100291 L85.2793844,16.7706846 L81.7072292,24.7458517 C80.1169192,23.1757013 79.1356641,21.0133979 79.1388866,18.630612 L79.1388866,18.630612 Z M73.0306139,18.6211628 L73,38 L80.0444126,31.0469267 C82.3452867,32.4643143 85.0699211,33.286399 87.9911288,33.2911237 C96.2665413,33.3037227 102.98548,26.7569672 102.999981,18.668409 C103.012871,10.5798508 96.314879,4.01262197 88.0394665,4.00002297 C79.764054,3.9858491 73.0451152,10.5326046 73.0306139,18.6211628 Z" id="Fill-18" fill="#3F9CEF"></path>
            <polygon id="Fill-20" fill="#3F9CEF" points="11.01 16 11.01 16.01 11 16"></polygon>
            <polygon id="Fill-22" fill="#3F9CEF" points="11 16 11 16.0028011 10 17 10.9936306 16"></polygon>
        </g>
    </g>
</svg>