<?xml version="1.0" encoding="utf-8"?>
<!-- Generator: Adobe Illustrator 20.1.0, SVG Export Plug-In . SVG Version: 6.00 Build 0)  -->
<svg version="1.1" id="Слой_1" xmlns="http://www.w3.org/2000/svg" xmlns:xlink="http://www.w3.org/1999/xlink" x="0px" y="0px"
	 viewBox="0 0 2000 2000" style="enable-background:new 0 0 2000 2000;" xml:space="preserve">
<path d="M1000,390.3c-289.9,0-524.9,235-524.9,524.9c0,187.6,98.4,352.2,246.3,445c80.7,50.7,176.2,79.9,278.5,79.9
	c289.9,0,524.9-235,524.9-524.9S1289.9,390.3,1000,390.3z M1000,1226.1c-43.2,0-84.4-8.8-121.8-24.8
	c-111.2-47.4-189.1-157.7-189.1-286.2c0-171.7,139.2-310.9,310.9-310.9s310.9,139.2,310.9,310.9
	C1310.9,1086.9,1171.7,1226.1,1000,1226.1z"/>
<path d="M878.2,1201.2l-156.8,158.9L475,1609.7V915h214.1C689.1,1044,767,1153.9,878.2,1201.2z"/>
<g>
	<polygon points="1220,694.1 1086.1,1001.3 779,1135.2 903,818.2 	"/>
	<ellipse transform="matrix(0.7071 -0.7071 0.7071 0.7071 -351.9678 969.6892)" cx="994.5" cy="909.7" rx="52.9" ry="52.9"/>
</g>
</svg>
