<?xml version="1.0" encoding="utf-8"?>
<!-- Generator: Adobe Illustrator 20.1.0, SVG Export Plug-In . SVG Version: 6.00 Build 0)  -->
<svg version="1.1" id="Слой_1" xmlns="http://www.w3.org/2000/svg" xmlns:xlink="http://www.w3.org/1999/xlink" x="0px" y="0px"
	 viewBox="0 0 2000 2000" style="enable-background:new 0 0 2000 2000;" xml:space="preserve">
<style type="text/css">
	.st0{fill:#FFFFFF;}
</style>
<g>
	<g>
		<circle cx="996.1" cy="1003.2" r="106.4"/>
		<polygon points="889.7,1003.2 889.7,1144 1028.6,1003.2 		"/>
		<circle class="st0" cx="996.1" cy="1003.2" r="63"/>
		<g>
			<polygon points="1040.7,958.4 1013.5,1020.7 951.3,1047.8 976.4,983.6 			"/>
			<ellipse transform="matrix(0.7071 -0.7071 0.7071 0.7071 -417.1876 997.0602)" cx="995" cy="1002.1" rx="10.7" ry="10.7"/>
		</g>
	</g>
	<g>
		<circle cx="457" cy="1003.2" r="106.4"/>
		<polygon points="350.7,1003.2 350.7,1144 489.6,1003.2 		"/>
		<circle class="st0" cx="457" cy="1003.2" r="63"/>
		<g>
			<polygon points="501.6,958.4 474.5,1020.7 412.2,1047.8 437.4,983.6 			"/>
			<ellipse transform="matrix(0.7071 -0.7071 0.7071 0.7071 -575.0695 615.8996)" cx="455.9" cy="1002.1" rx="10.7" ry="10.7"/>
		</g>
	</g>
	<path d="M678.5,1073.4c-1.7-3.1-3.2-7.7-4.5-13.7c-8.8,11-21,16.6-36.8,16.6c-14.4,0-26.7-4.4-36.8-13.1
		c-10.1-8.7-15.1-19.7-15.1-32.9c0-16.6,6.1-29.2,18.4-37.6c12.3-8.5,30.1-12.7,53.5-12.7h14.7v-8.1c0-14.1-6.1-21.2-18.3-21.2
		c-11.3,0-17,5.6-17,16.8h-47.7c0-14.8,6.3-26.8,18.9-36c12.6-9.2,28.7-13.9,48.2-13.9c19.5,0,35,4.8,46.3,14.3
		c11.3,9.5,17.1,22.6,17.4,39.2v67.8c0.2,14.1,2.4,24.8,6.5,32.3v2.4H678.5z M648.6,1042.3c5.9,0,10.9-1.3,14.8-3.8
		c3.9-2.5,6.7-5.4,8.4-8.6v-24.5h-13.9c-16.6,0-24.9,7.5-24.9,22.4c0,4.3,1.5,7.9,4.4,10.5C640.3,1040.9,644.1,1042.3,648.6,1042.3z
		"/>
	<path d="M808.4,1006.6l25.5-86.3h51.1L822.5,1099l-2.7,6.5c-8.9,19.8-24.5,29.7-47,29.7c-6.2,0-12.8-0.9-19.7-2.8v-34h6.2
		c6.7,0,11.8-1,15.4-2.9c3.5-1.9,6.2-5.4,7.9-10.4l3.8-10.2l-53.2-154.7h50.9L808.4,1006.6z"/>
	<path d="M1173.7,1073.4h-47.8V856h47.8V1073.4z"/>
	<path d="M1289.3,1073.4c-1.7-3.1-3.2-7.7-4.5-13.7c-8.8,11-21,16.6-36.8,16.6c-14.4,0-26.7-4.4-36.8-13.1
		c-10.1-8.7-15.1-19.7-15.1-32.9c0-16.6,6.1-29.2,18.4-37.6s30.1-12.7,53.5-12.7h14.7v-8.1c0-14.1-6.1-21.2-18.3-21.2
		c-11.3,0-17,5.6-17,16.8h-47.7c0-14.8,6.3-26.8,18.9-36c12.6-9.2,28.7-13.9,48.2-13.9c19.5,0,35,4.8,46.3,14.3
		c11.3,9.5,17.1,22.6,17.4,39.2v67.8c0.2,14.1,2.4,24.8,6.5,32.3v2.4H1289.3z M1259.5,1042.3c5.9,0,10.9-1.3,14.8-3.8
		c3.9-2.5,6.7-5.4,8.4-8.6v-24.5h-13.9c-16.6,0-24.9,7.5-24.9,22.4c0,4.3,1.5,7.9,4.4,10.5
		C1251.2,1040.9,1254.9,1042.3,1259.5,1042.3z"/>
	<path d="M1421.6,1039.4c6.7,0,11.9-1.8,15.6-5.4c3.7-3.6,5.5-8.7,5.4-15.2h44.7c0,16.8-6,30.6-18,41.3
		c-12,10.8-27.5,16.1-46.5,16.1c-22.3,0-39.8-7-52.6-20.9c-12.8-14-19.2-33.3-19.2-58v-2c0-15.5,2.9-29.1,8.6-41
		c5.7-11.8,13.9-20.9,24.7-27.3c10.8-6.4,23.5-9.6,38.2-9.6c19.9,0,35.7,5.5,47.4,16.6c11.7,11,17.5,26,17.5,44.9h-44.7
		c0-7.9-1.9-14-5.8-18.3c-3.9-4.2-9.1-6.4-15.6-6.4c-12.4,0-19.6,7.9-21.7,23.6c-0.7,5-1,11.9-1,20.7c0,15.4,1.8,26,5.5,32
		C1407.8,1036.5,1413.6,1039.4,1421.6,1039.4z"/>
	<path d="M1584.8,1076.2c-23.5,0-42.5-7-57-21c-14.5-14-21.8-32.2-21.8-54.7v-4c0-15.7,2.9-29.5,8.7-41.5
		c5.8-12,14.3-21.2,25.4-27.8c11.1-6.6,24.3-9.8,39.6-9.8c21.5,0,38.5,6.7,50.9,20c12.5,13.4,18.7,32,18.7,55.8v18.5h-94.8
		c1.7,8.6,5.4,15.3,11.2,20.2c5.8,4.9,13.2,7.4,22.4,7.4c15.1,0,26.9-5.3,35.4-15.8l21.8,25.8c-5.9,8.2-14.4,14.7-25.3,19.6
		C1609.1,1073.8,1597.4,1076.2,1584.8,1076.2z M1579.4,954.2c-14,0-22.3,9.2-24.9,27.7h48.1v-3.7c0.2-7.6-1.7-13.6-5.8-17.8
		C1592.8,956.3,1587,954.2,1579.4,954.2z"/>
</g>
</svg>
